<mxfile host="app.diagrams.net" modified="2023-05-14T07:03:30.910Z" agent="Mozilla/5.0 (Macintosh; Intel Mac OS X 10_15_7) AppleWebKit/537.36 (KHTML, like Gecko) Chrome/112.0.0.0 Safari/537.36" version="21.1.5" etag="ASJbTi9vCV5QHM4If23y" type="github">
  <diagram name="第 1 页" id="C_3h3VAVvYODB8KFkyO_">
    <mxGraphModel>
      <root>
        <mxCell id="0" />
        <mxCell id="1" parent="0" />
      </root>
    </mxGraphModel>
  </diagram>
</mxfile>
